<svg xmlns="http://www.w3.org/2000/svg" viewBox="0 0 512 512" width="512" height="512"><style>@media (prefers-color-scheme: dark){.plate{fill:#151924}.bubble{fill:#202739;stroke:#F0EAE1}.faint{fill:#F0EAE1;stroke:#F0EAE1}.accent{fill:#5B87FF}.onaccent{fill:#10141F}.pt-fill{fill:#F0EAE1}.pt-stroke{stroke:#F0EAE1}}</style><rect class="plate" width="512" height="512" rx="114" fill="#F4EFE4"/><path class="bubble" d="M128 76H384A68 68 0 0 1 452 144V288A68 68 0 0 1 384 356H216L152 428L144 356H128A68 68 0 0 1 60 288V144A68 68 0 0 1 128 76Z" fill="#FBF8F0" stroke="#1F2437" stroke-width="38" stroke-linejoin="round"/><rect class="accent" x="124" y="134" width="252" height="88" rx="20" fill="#3B6FF5"/><g transform="translate(330 226) scale(2.7)"><path class="faint" d="M0 0L0 26L6.5 20L12 31L18 28L12.5 17.5L21 17.5Z" fill="#1F2437"/></g></svg>